<svg width="60" height="60" viewBox="0 0 60 60" fill="none" xmlns="http://www.w3.org/2000/svg">
<circle cx="30" cy="20" r="10" stroke="#000000" stroke-linecap="round"/>
<path fill-rule="evenodd" clip-rule="evenodd" d="M42.8026 38C41.5876 37.2489 40.258 36.6032 38.8379 36.078C35.2161 34.7384 31.1529 34.2364 27.159 34.6308C23.1654 35.0251 19.4056 36.2995 16.357 38.3047C13.3082 40.3099 11.0956 42.965 10.0293 45.9495C9.93638 46.2096 10.0719 46.4957 10.3319 46.5886C10.592 46.6815 10.8781 46.546 10.971 46.2859C11.9523 43.5392 14.0072 41.0471 16.9065 39.1402C19.8059 37.2332 23.4073 36.0061 27.2573 35.6259C31.1069 35.2458 35.0173 35.7311 38.491 37.0159C39.2786 37.3072 40.0349 37.6363 40.7559 38L42.8026 38ZM46.8187 42.8839C46.9945 43.031 47.2549 43.0419 47.4442 42.8962C47.663 42.7278 47.7038 42.4138 47.5354 42.195C47.4851 42.1297 47.4342 42.0647 47.3827 42H46.8187V42.8839Z" fill="#222222"/>
<path d="M44.8186 30L44.8186 50" stroke="#000000" stroke-linecap="round"/>
<path d="M54.8186 40L34.8186 40" stroke="#000000" stroke-linecap="round"/>
</svg>
