<?xml version="1.0" standalone="no"?>
<!DOCTYPE svg PUBLIC "-//W3C//DTD SVG 20010904//EN"
 "http://www.w3.org/TR/2001/REC-SVG-20010904/DTD/svg10.dtd">
<svg version="1.0" xmlns="http://www.w3.org/2000/svg"
 width="48.000000pt" height="48.000000pt" viewBox="0 0 48.000000 48.000000"
 preserveAspectRatio="xMidYMid meet">

<g transform="translate(0.000000,48.000000) scale(0.100000,-0.100000)"
fill="#FFFFFF" stroke="none">
<path d="M172 437 c-173 -66 -192 -299 -32 -385 61 -32 160 -29 213 8 102 70
125 209 50 308 -47 62 -159 96 -231 69z m158 -36 c19 -10 48 -36 63 -58 52
-73 46 -160 -16 -230 -113 -129 -327 -47 -327 126 0 75 63 163 128 177 15 3
32 7 37 9 18 7 79 -6 115 -24z"/>
<path d="M227 404 c-14 -14 -7 -35 11 -32 9 2 17 10 17 17 0 16 -18 25 -28 15z"/>
<path d="M285 305 c-21 -31 -41 -58 -45 -60 -5 -3 -28 11 -51 31 -24 20 -45
31 -47 25 -4 -12 81 -90 99 -91 6 0 99 134 99 143 0 20 -21 1 -55 -48z"/>
<path d="M77 254 c-14 -14 -7 -35 11 -32 9 2 17 10 17 17 0 16 -18 25 -28 15z"/>
<path d="M377 254 c-14 -14 -7 -35 11 -32 9 2 17 10 17 17 0 16 -18 25 -28 15z"/>
<path d="M227 104 c-14 -14 -7 -35 11 -32 9 2 17 10 17 17 0 16 -18 25 -28 15z"/>
</g>
</svg>
